<svg width="40" height="41" viewBox="0 0 40 41" fill="none" xmlns="http://www.w3.org/2000/svg">
<path d="M32.2154 35.3887C32.762 35.622 33.292 35.622 34.1654 35.622C35.0554 35.622 35.5854 35.622 36.0987 35.3887C36.832 35.0887 37.3987 34.5387 37.682 33.822C37.9154 33.2887 37.9154 32.7887 37.9154 31.872V26.7387C37.9154 24.6887 37.9154 23.5553 37.582 22.422C37.2404 21.302 36.5987 20.3387 35.5487 18.7637L35.4654 18.6387L35.032 17.9953L37.4154 16.2053C37.6806 16.0064 37.8559 15.7103 37.9028 15.3821C37.9497 15.0539 37.8643 14.7205 37.6654 14.4553C37.4665 14.1901 37.1703 14.0148 36.8421 13.9679C36.514 13.921 36.1806 14.0064 35.9154 14.2053L33.8654 15.7437L32.882 13.372C31.5987 10.272 30.882 8.55532 29.2987 7.48866C27.7154 6.45532 25.8654 6.45532 22.4987 6.45532H17.497C14.1304 6.45532 12.2804 6.45532 10.6987 7.50532C9.14204 8.53866 8.4387 10.2137 7.18204 13.2153L7.11537 13.372L6.13204 15.742L4.08204 14.2053C3.81682 14.0064 3.48345 13.921 3.15526 13.9679C2.82707 14.0148 2.53095 14.1901 2.33204 14.4553C2.13312 14.7205 2.04772 15.0539 2.0946 15.3821C2.14148 15.7103 2.31682 16.0064 2.58204 16.2053L4.96537 17.9937L4.53204 18.6387L4.4487 18.7637C3.3987 20.3387 2.75704 21.302 2.41537 22.422C2.08204 23.5553 2.08204 24.6887 2.08204 26.7387V31.872C2.08204 32.7887 2.08204 33.2887 2.2987 33.8053C2.5987 34.5387 3.16537 35.1053 3.86537 35.3887C4.41537 35.622 4.93204 35.622 5.83037 35.622C6.73037 35.622 7.26537 35.622 7.78037 35.3887C8.5137 35.0887 9.08037 34.5387 9.3637 33.822C9.59704 33.2887 9.59703 32.7887 9.59703 31.872C9.59703 31.4387 9.59703 30.9887 9.63037 30.872C9.68037 30.772 9.74704 30.7053 9.8637 30.6553C9.98037 30.622 10.4137 30.622 10.847 30.622H29.1804C29.6137 30.622 30.047 30.622 30.1804 30.6553C30.2804 30.7053 30.347 30.772 30.397 30.872C30.4304 30.9887 30.4304 31.4387 30.4304 31.872C30.4304 32.7887 30.4304 33.2887 30.647 33.8053C30.947 34.5387 31.5154 35.1053 32.2154 35.3887ZM7.2237 19.137L9.2987 19.6553C9.6487 19.7387 10.032 19.7887 10.4154 19.7887H29.582C29.9654 19.7887 30.3487 19.7387 30.6987 19.6553L32.7887 19.1337L33.3987 20.0387C34.4487 21.622 34.9654 22.4053 35.1987 23.1553C35.432 23.922 35.432 24.872 35.432 26.7387V31.872C35.432 32.3053 35.432 32.7553 35.3987 32.872C35.3487 32.972 35.282 33.0387 35.1654 33.0887C34.9487 33.1553 33.4487 33.172 33.182 33.0887C33.0867 33.044 33.01 32.9673 32.9654 32.872C32.932 32.7553 32.932 32.3053 32.932 31.872C32.932 30.9553 32.932 30.4553 32.7154 29.9387C32.5731 29.5836 32.3612 29.2605 32.0921 28.9886C31.823 28.7167 31.5023 28.5014 31.1487 28.3553C30.5987 28.122 30.0654 28.122 29.1837 28.122H10.8487C9.9487 28.122 9.41537 28.122 8.90037 28.3553C8.16704 28.6553 7.60037 29.2053 7.31704 29.922C7.0837 30.4553 7.0837 30.9553 7.0837 31.872C7.0837 32.3053 7.0837 32.7553 7.05037 32.872C7.00037 32.972 6.9337 33.0387 6.81704 33.0887C6.60037 33.1553 5.10037 33.172 4.8337 33.0887C4.73836 33.044 4.66169 32.9673 4.61704 32.872C4.5837 32.7553 4.5837 32.3053 4.5837 31.872V26.7387C4.5837 24.8553 4.5837 23.922 4.81704 23.1553C5.05037 22.4053 5.56704 21.622 6.61704 20.0387L7.2237 19.137ZM8.39037 16.847L9.43203 14.3387C10.6654 11.4053 11.1987 10.2053 12.0987 9.58866C13.0487 8.95532 14.532 8.95532 17.512 8.95532H22.5154C25.482 8.95532 26.982 8.95532 27.9154 9.57199C28.832 10.1887 29.3654 11.4053 30.582 14.3387L31.622 16.842L30.082 17.222C29.9154 17.272 29.7487 17.2887 29.582 17.2887H10.3987C10.232 17.2887 10.0654 17.272 9.8987 17.222L8.39037 16.847ZM30.0154 26.0553C29.0987 26.0553 28.3487 25.3053 28.3487 24.3887C28.3487 23.472 29.0987 22.722 30.0154 22.722C30.932 22.722 31.682 23.4553 31.682 24.3887C31.682 25.322 30.932 26.072 30.0154 26.072V26.0553ZM8.3487 24.3887C8.3487 25.3053 9.0987 26.0553 10.0154 26.0553V26.072C10.932 26.072 11.682 25.322 11.682 24.3887C11.682 23.4553 10.932 22.722 10.0154 22.722C9.0987 22.722 8.3487 23.472 8.3487 24.3887Z" fill="#009E43"/>
</svg>
