<svg width="40" height="41" viewBox="0 0 40 41" fill="none" xmlns="http://www.w3.org/2000/svg">
<path d="M29.0233 17.8567C30 16.88 30 15.31 30 12.1667C30 9.02333 30 7.45333 29.0233 6.47667M29.0233 17.8567C28.0467 18.8333 26.4767 18.8333 23.3333 18.8333H16.6667C13.5233 18.8333 11.9533 18.8333 10.9767 17.8567M29.0233 6.47667C28.0467 5.5 26.4767 5.5 23.3333 5.5H16.6667C13.5233 5.5 11.9533 5.5 10.9767 6.47667M10.9767 6.47667C10 7.45333 10 9.02333 10 12.1667C10 15.31 10 16.88 10.9767 17.8567M21.6667 12.1667C21.6667 12.6087 21.4911 13.0326 21.1785 13.3452C20.866 13.6577 20.442 13.8333 20 13.8333C19.558 13.8333 19.134 13.6577 18.8215 13.3452C18.5089 13.0326 18.3333 12.6087 18.3333 12.1667C18.3333 11.7246 18.5089 11.3007 18.8215 10.9882C19.134 10.6756 19.558 10.5 20 10.5C20.442 10.5 20.866 10.6756 21.1785 10.9882C21.4911 11.3007 21.6667 11.7246 21.6667 12.1667Z" stroke="white" stroke-width="1.5"/>
<path d="M30.0007 10.5C28.6746 10.5 27.4028 9.97322 26.4651 9.03553C25.5274 8.09785 25.0007 6.82608 25.0007 5.5M30.0007 13.8333C28.6746 13.8333 27.4028 14.3601 26.4651 15.2978C25.5274 16.2355 25.0007 17.5073 25.0007 18.8333M10.0007 10.5C11.3267 10.5 12.5985 9.97322 13.5362 9.03553C14.4739 8.09785 15.0007 6.82608 15.0007 5.5M10.0007 13.8333C11.3267 13.8333 12.5985 14.3601 13.5362 15.2978C14.4739 16.2355 15.0007 17.5073 15.0007 18.8333M8.33398 34.48H12.1007C13.784 34.48 15.489 34.6567 17.1273 34.9933C20.0525 35.5924 23.0618 35.659 26.0107 35.19C27.4573 34.9567 28.8773 34.5983 30.164 33.9783C31.324 33.4167 32.7456 32.6283 33.7006 31.7433C34.654 30.86 35.6473 29.415 36.3506 28.285C36.9573 27.315 36.664 26.1267 35.7073 25.405C35.1694 25.0147 34.5219 24.8045 33.8573 24.8045C33.1927 24.8045 32.5452 25.0147 32.0073 25.405L28.9956 27.68C27.829 28.5633 26.554 29.375 25.0357 29.6167C24.8523 29.6456 24.6607 29.6717 24.4607 29.695M24.4607 29.695L24.2773 29.715M24.4607 29.695C24.7274 29.6227 24.9719 29.4853 25.1723 29.295C25.4239 29.078 25.6293 28.8127 25.7765 28.5149C25.9237 28.217 26.0096 27.8927 26.0292 27.5611C26.0488 27.2294 26.0016 26.8972 25.8905 26.5841C25.7794 26.271 25.6066 25.9834 25.3823 25.7383C25.1651 25.4972 24.9122 25.2909 24.6323 25.1267C19.9707 22.345 12.7157 24.4633 8.33398 27.5717M24.4607 29.695C24.4005 29.7084 24.339 29.7151 24.2773 29.715M24.2773 29.715C23.2722 29.8157 22.2596 29.818 21.254 29.7217" stroke="white" stroke-width="1.5" stroke-linecap="round"/>
<path d="M8.33398 26.3333C8.33398 24.9525 7.2147 23.8333 5.83398 23.8333C4.45327 23.8333 3.33398 24.9525 3.33398 26.3333V34.6666C3.33398 36.0473 4.45327 37.1666 5.83398 37.1666C7.2147 37.1666 8.33398 36.0473 8.33398 34.6666V26.3333Z" stroke="white" stroke-width="1.5"/>
</svg>
